<svg width="16" height="16" viewBox="0 0 16 16" fill="none" xmlns="http://www.w3.org/2000/svg">
<path fill-rule="evenodd" clip-rule="evenodd" d="M12.6666 7.33329H8.66663V3.33329C8.66663 2.96463 8.36796 2.66663 7.99996 2.66663C7.63196 2.66663 7.33329 2.96463 7.33329 3.33329V7.33329H3.33329C2.96529 7.33329 2.66663 7.63129 2.66663 7.99996C2.66663 8.36862 2.96529 8.66662 3.33329 8.66662H7.33329V12.6666C7.33329 13.0353 7.63196 13.3333 7.99996 13.3333C8.36796 13.3333 8.66663 13.0353 8.66663 12.6666V8.66662H12.6666C13.0346 8.66662 13.3333 8.36862 13.3333 7.99996C13.3333 7.63129 13.0346 7.33329 12.6666 7.33329Z" fill="#231F20"/>
<mask id="mask0" mask-type="alpha" maskUnits="userSpaceOnUse" x="2" y="2" width="12" height="12">
<path fill-rule="evenodd" clip-rule="evenodd" d="M12.6666 7.33329H8.66663V3.33329C8.66663 2.96463 8.36796 2.66663 7.99996 2.66663C7.63196 2.66663 7.33329 2.96463 7.33329 3.33329V7.33329H3.33329C2.96529 7.33329 2.66663 7.63129 2.66663 7.99996C2.66663 8.36862 2.96529 8.66662 3.33329 8.66662H7.33329V12.6666C7.33329 13.0353 7.63196 13.3333 7.99996 13.3333C8.36796 13.3333 8.66663 13.0353 8.66663 12.6666V8.66662H12.6666C13.0346 8.66662 13.3333 8.36862 13.3333 7.99996C13.3333 7.63129 13.0346 7.33329 12.6666 7.33329Z" fill="white"/>
</mask>
<g mask="url(#mask0)">
<rect width="16" height="16" fill="white"/>
</g>
</svg>
