<svg width="16" height="16" viewBox="0 0 16 16" fill="none" xmlns="http://www.w3.org/2000/svg">
<path d="M7.99996 6.66683C10.6506 6.66683 13.3333 5.75083 13.3333 4.00016C13.3333 2.2495 10.6506 1.3335 7.99996 1.3335C5.34929 1.3335 2.66663 2.2495 2.66663 4.00016C2.66663 5.75083 5.34929 6.66683 7.99996 6.66683Z" fill="white"/>
<path d="M2.66663 6.66683C2.66663 8.4175 5.34929 9.3335 7.99996 9.3335C10.6506 9.3335 13.3333 8.4175 13.3333 6.66683V5.3335C13.3333 7.08416 10.6506 8.00016 7.99996 8.00016C5.34929 8.00016 2.66663 7.08416 2.66663 5.3335V6.66683Z" fill="white"/>
<path d="M2.66663 9.33333C2.66663 11.084 5.34929 12 7.99996 12C10.6506 12 13.3333 11.084 13.3333 9.33333V8C13.3333 9.75067 10.6506 10.6667 7.99996 10.6667C5.34929 10.6667 2.66663 9.75067 2.66663 8V9.33333Z" fill="white"/>
<path d="M2.66663 11.9998C2.66663 13.7505 5.34929 14.6665 7.99996 14.6665C10.6506 14.6665 13.3333 13.7505 13.3333 11.9998V10.6665C13.3333 12.4172 10.6506 13.3332 7.99996 13.3332C5.34929 13.3332 2.66663 12.4172 2.66663 10.6665V11.9998Z" fill="white"/>
</svg>
